<svg width="70" height="38" viewBox="0 0 70 38" fill="none" xmlns="http://www.w3.org/2000/svg">
<rect x="33" y="20" width="1" height="2" fill="#FEF9E1"/>
<rect x="0.918976" y="12.1191" width="56.363" height="3.74535" fill="#FEF9E1"/>
<rect x="0.918976" y="10.621" width="4.02593" height="3.74535" fill="#FEF9E1"/>
<rect x="10" y="12" width="46" height="8" fill="#FEF9E1"/>
<rect x="0.918976" y="14.3663" width="26.8395" height="2.99628" fill="#FEF9E1"/>
<rect x="0.918976" y="14.3663" width="26.8395" height="2.24721" fill="#FEF9E1"/>
<rect x="4.94485" y="15.1154" width="26.8395" height="2.99628" fill="#FEF9E1"/>
<rect x="6.28687" y="15.8644" width="26.8395" height="2.24721" fill="#FEF9E1"/>
<rect x="6.28687" y="16.6135" width="4.02593" height="1.49814" fill="#FEF9E1"/>
<rect x="6.28687" y="17.3626" width="4.02593" height="1.1236" fill="#FEF9E1"/>
<rect x="7.62881" y="18.1116" width="4.69692" height="0.74907" fill="#FEF9E1"/>
<rect x="8.97083" y="18.8607" width="1.34198" height="0.74907" fill="#FEF9E1"/>
<rect x="6.28687" y="33.8421" width="50.9951" height="2.99628" fill="#FEF9E1"/>
<rect x="34" y="19" width="23" height="16" fill="#FEF9E1"/>
<path d="M56.6111 36.8384V11.7446" stroke="black"/>
<path d="M33.7974 28.2241C33.7974 25.5274 33.3501 20.1092 32.4554 19.9843H10.9838L0.918976 16.239V10.621H4.94491L5.6159 12.1191H56.611" stroke="black"/>
<path d="M42.5203 24.1042V25.2278H46.5462V22.6061H40.5073V26.3514H49.2302V21.1079H37.1524V28.5986H52.5851V17.3626H48.5592H40.5073H30.4425H25.0746H10.3128L1.58996 14.3663H0.918974H0.247986" stroke="#D2B48C"/>
<ellipse cx="30.4425" cy="14.3663" rx="2.68395" ry="1.49814" fill="black"/>
<ellipse cx="29.1005" cy="14.3663" rx="1.34198" ry="0.74907" fill="#D2B48C"/>
<path d="M25.0745 12.1191L23.0616 8.37374L25.7455 7.99921L28.4295 11.7446L25.0745 12.1191Z" fill="#FEF9E1" stroke="#D2B48C"/>
<path d="M29.1005 11.7446V7.99921V7.62468H31.7844V11.7446H29.1005Z" fill="#FEF9E1" stroke="#D2B48C"/>
<path d="M32.4554 11.7446L34.4684 7.62468L37.8233 8.37375L35.8104 11.7446H32.4554Z" fill="#FEF9E1" stroke="#D2B48C"/>
<path d="M1.58997 16.988V19.6098V20.3589L4.94491 21.857V18.1116L1.58997 16.988Z" fill="#FEF9E1"/>
<path d="M1.58997 16.988V16.6135V19.6098M1.58997 16.988L4.94491 18.1116M1.58997 16.988V19.6098M1.58997 19.6098V20.3589L4.94491 21.857V18.1116M4.94491 17.7371V18.1116" stroke="#D2B48C"/>
<path d="M7.62881 19.2353V22.9806L10.9838 24.1042V19.9843L7.62881 19.2353Z" fill="#FEF9E1" stroke="#D2B48C"/>
<path d="M7.62881 18.8607V19.6098" stroke="#D2B48C"/>
<path d="M15.1118 20.345L14.9589 25.9624L18.2625 27.8633L18.3644 24.1184L18.4664 20.3735L15.1118 20.345Z" fill="#FEF9E1" stroke="#D2B48C"/>
<path d="M21.7196 25.9769V20.3589L25.0745 19.9843V24.8533L26.4165 27.475L23.7326 28.2241L21.7196 25.9769Z" fill="#FEF9E1" stroke="#D2B48C"/>
<path d="M8.97083 33.4676V31.2204L11.6548 30.0968V33.4676" stroke="#D2B48C"/>
<path d="M15.6807 33.4676V30.8458H19.7067V33.4676" stroke="#D2B48C"/>
<path d="M23.0616 33.4676V30.8458H27.0875V33.093" stroke="#D2B48C"/>
<path d="M61.3079 6.12656C54.8107 7.18287 40.9754 9.73763 41.1783 11.7446H56.611L61.3079 11.37C61.1297 10.4109 63.9847 9.35394 66.6758 8.37377C67.5705 7.6247 69.3598 5.82693 69.3598 4.62842V3.50482V1.63214L66.6758 2.75575C66.0048 3.62966 63.9919 5.5273 61.3079 6.12656Z" fill="#FEF9E1" stroke="#D2B48C"/>
<path d="M51.9141 6.12654C47.2195 7.39493 37.5138 10.3993 37.8233 11.7446H41.1783L42.5203 10.2464L60.6369 6.12654C61.0843 5.75201 61.3079 4.6284 61.3079 4.25387V0.883057L58.624 2.00666C57.7293 3.13027 55.1348 5.52729 51.9141 6.12654Z" fill="#FEF9E1" stroke="#D2B48C"/>
<rect x="33" y="33" width="1" height="1" fill="#FEF9E1"/>
<rect x="33" y="32" width="1" height="2" fill="#FEF9E1"/>
<rect x="32" y="33" width="1" height="1" fill="#FEF9E1"/>
<path d="M57.282 36.8384H19.0356H6.28687V33.4676H31.1134C33.7974 33.4676 34.0211 29.7222 33.7974 27.8495" stroke="black"/>
</svg>
