<svg width="165" height="47" viewBox="0 0 165 47" fill="none" xmlns="http://www.w3.org/2000/svg">
<path d="M164 28L155.6 29H150.7H145.8L136 27" stroke="#6FB272"/>
<path d="M143 27V26.3333L142 26L139 26.1667L140 26.5" stroke="#6FB272"/>
<path d="M136 27.2288L121.111 30.0968M121.111 30.0968L116.857 34.8402V38.8462M121.111 30.0968L97.7142 34.8402M97.7142 34.8402L73.6085 39.2468C44.6153 47.1607 28.8424 48.3229 2 41.6504L16.1798 32.8372L21.8518 31.6354M97.7142 34.8402C99.0932 33.1261 98.74 29.8901 97.7142 26.4957M91.3333 8L93.4603 16.8132C94.7958 19.1457 96.6304 22.9092 97.7142 26.4957M97.7142 26.4957C54.6074 18.7497 56.5925 7.59939 48.7936 12.006" stroke="#6FB272"/>
<path d="M23.3333 30.1111L22.6667 28.7778L22 27.4444L23.3333 27H24.6667V28.3333L27.3333 27.4444L28 28.7778L27.3333 30.1111H23.3333Z" fill="#FEE2B8"/>
<path d="M22 31L23.3333 30.1111M23.3333 30.1111L22.6667 28.7778L22 27.4444L23.3333 27H24.6667V28.3333L27.3333 27.4444L28 28.7778L27.3333 30.1111H23.3333Z" stroke="#D2B48C"/>
<path d="M94 17H92" stroke="#6FB272"/>
<path d="M92 17V15" stroke="#6FB272"/>
<path d="M92 17H85" stroke="#6FB272"/>
<path d="M91.4444 15H89.8889H88.3333H87.5556L86 13.1818V12.2727H87.5556V11.3636L88.3333 10.4545L89.1111 10H89.8889L90.6667 10.4545L91.4444 11.3636V12.2727H93V13.1818L91.4444 15Z" fill="#FFB7A8" stroke="#FFB7A8"/>
<path d="M89 15C89 14.4 89 14.0833 89 14" stroke="#DD9534"/>
<path d="M89 15C89.8 15 90 14.3333 90 14" stroke="#E89D39"/>
<path d="M86.7273 3.21053L91.5 7L88.7727 2.26316L86.7273 3.21053Z" fill="#9DA7FA"/>
<path d="M92.1818 7L92.3138 6.90832L94.2273 1L90.8182 2.26316L92.1818 7Z" fill="#9DA7FA"/>
<path d="M92.2873 6.99015C94.9385 6.74029 96.0484 6.47232 96.2727 6.36842L97.6364 5.42105L98.3182 4.78947L99 2.57895L94.9091 5.10526L92.3138 6.90832L92.2873 6.99015Z" fill="#9DA7FA"/>
<path d="M84.6818 5.42105L91.5 7L87.4091 4.47368L85.3636 3.52632L84 3.84211V4.15789L84.6818 5.42105Z" fill="#9DA7FA"/>
<path d="M92.1818 7L90.8182 2.26316L94.2273 1L92.3138 6.90832M92.1818 7L92.3138 6.90832M92.1818 7C92.2172 6.99672 92.2524 6.99343 92.2873 6.99015M91.5 7L84.6818 5.42105L84 4.15789V3.84211L85.3636 3.52632L87.4091 4.47368L91.5 7ZM91.5 7L86.7273 3.21053L88.7727 2.26316L91.5 7ZM91.5 7L92.2873 6.99015M92.3138 6.90832L94.9091 5.10526L99 2.57895L98.3182 4.78947L97.6364 5.42105L96.2727 6.36842C96.0484 6.47232 94.9385 6.74029 92.2873 6.99015M92.3138 6.90832L92.2873 6.99015" stroke="#9DA7FA"/>
<path d="M52 11C52 10.4304 51.7154 9.95036 51.4423 9.39815C51.1547 8.81658 50.6973 8.31238 50.3269 7.75C50.0865 7.38484 49.7954 7.12766 49 7" stroke="#820000" stroke-linecap="square"/>
<path d="M49 9.84369C48.2399 9.84369 47.6953 9.61219 47.0331 9.47549C46.4527 9.35567 45.9326 9.18655 45.3654 9.06213C44.0721 8.77848 42.5043 9.53151 42 10" stroke="#820000" stroke-linecap="square"/>
<path d="M51 10C50.2411 10.283 49.8664 10.9863 49.3111 11.395C49.009 11.6173 48.889 11.7895 48.4716 11.9406C47.8987 12.1479 47.3292 12.298 46.7086 12.424C44.8985 12.7915 42.978 12.5976 41.1728 12.9212C40.4939 13.043 39.6836 13.0081 39 12.9212" stroke="#820000" stroke-linecap="square"/>
<path d="M42 14C41.9699 14.5212 41.3629 14.5553 40.815 14.7142C40.5219 14.7992 40.1978 14.7691 39.8863 14.8271C39.2351 14.9483 38.5979 14.9888 37.9235 14.9888C36.9151 14.9888 35.9168 15.0749 35 14.7691" stroke="#820000" stroke-linecap="square"/>
<path d="M45.9971 7C45.9971 6.75683 46.072 6.54036 45.4571 6.35C44.9713 6.1996 44.2442 6.07106 43.4939 6.05139C42.9726 6.03773 42.4677 6.07722 42 6" stroke="#820000" stroke-linecap="square"/>
<path d="M42 10C41.4291 10 39.4031 10 39.0652 10C38.8799 10 37.9936 10 37.5866 10C37.1496 10 36.6786 10 36.2571 10C35.8276 10 35.4587 10 35 10" stroke="#820000" stroke-linecap="square"/>
<path d="M46.3643 13C46.4185 13.1312 46.5999 13.2075 46.7915 13.3256C47.0418 13.4797 47.1723 13.7188 46.5566 13.8346C45.6793 13.9997 44.0543 14 43 14" stroke="#820000" stroke-linecap="square"/>
<path d="M67 17C67 16.6308 67 14.3846 67 13.3077L64 11" stroke="#6FB272"/>
<path d="M46 14C45.7691 14.0278 45.3666 14.7559 45.1869 14.9431C44.662 15.4896 44.4457 16.2616 43.7668 16.6644C42.9479 17.1503 42.0264 16.9655 41.0682 16.9655C40.3788 16.9655 39.6894 16.9655 39 16.9655" stroke="#820000" stroke-linecap="square"/>
<path d="M39.9794 14C39.9794 13.5249 40.0974 13.0305 39.7685 12.5972C39.3569 12.0551 38.7834 11.5813 37.9441 11.316C37.4292 11.1532 37.06 11 36.4519 11C35.6146 11 34.822 11.1875 34 11.1875" stroke="#820000" stroke-linecap="square"/>
<path d="M43.5977 11C43.6472 10.8049 44.0627 10.6091 43.9919 10.4136C43.9633 10.3348 42.731 10.1358 42.5484 10.0985C42.0925 10.0054 41.5558 10.0999 41.0993 10.0241C40.8064 9.97553 40.322 10.0154 40 10.0154" stroke="#820000" stroke-linecap="square"/>
<path d="M40.7764 10C41.354 9.87501 41.845 9.60025 42.3192 9.38197C42.5219 9.28863 42.9821 9.1694 42.998 9.00003C43.0419 8.53039 42.3579 8.40352 41.7514 8.15978C41.1011 7.89844 40.5704 7.47534 39.7767 7.32648C39.1679 7.2123 38.7565 7.06535 38.0796 7.03135C37.3872 6.99656 36.6943 7.0001 36 7.0001" stroke="#820000" stroke-linecap="square"/>
<path d="M50.3781 9.88977C50.744 9.91261 51.016 10.0733 51.424 9.95988C52.0962 9.77306 51.9635 9.39542 51.9635 9.06021C51.9635 8.41489 52.1121 7.70191 51.8094 7.07392C51.4812 6.39322 51.1569 5.63017 49.8827 5.2921C49.3045 5.13872 48.651 5 48 5" stroke="#820000" stroke-linecap="square"/>
<path d="M51.9731 11C51.9731 11.6325 52.2193 12.289 51.2216 12.6364C50.7633 12.796 50.502 13 49.8899 13C48.9284 13 47.9811 12.8788 47 12.8788" stroke="#820000" stroke-linecap="square"/>
<path d="M52 13C51.5935 13.5409 51.4575 14.1822 51.0147 14.7039C50.3309 15.5095 49.547 16.2441 48.3155 16.5209C47.0454 16.8062 45.6867 16.9973 44.369 16.9973C43.8537 16.9973 43.4164 17.0321 42.9486 16.8519C42.6319 16.7299 42.3832 16.6339 42 16.6339" stroke="#820000" stroke-linecap="square"/>
<path d="M43 15C42.808 15 42.3158 15 42 15C41.471 15 40.9799 15 40.4444 15C39.7766 15 39.1099 15 38.4545 15C38.0759 15 37.738 15 37.3636 15C36.9091 15 36.4545 15 36 15" stroke="#820000" stroke-linecap="square"/>
<path d="M49 5C49 5.18611 48.6236 5.77778 47.9904 5.77778C46.6446 5.77778 45.3639 6 44 6" stroke="#820000" stroke-linecap="square"/>
</svg>
