<svg width="430" height="181" viewBox="0 0 430 181" fill="none" xmlns="http://www.w3.org/2000/svg">
<rect x="426.932" y="181" width="425.932" height="132.692" transform="rotate(180 426.932 181)" fill="#A31D1D"/>
<rect x="121.006" y="111.632" width="58.269" height="4.32156" transform="rotate(180 121.006 111.632)" fill="#FEF9E1"/>
<rect x="121.006" y="113.36" width="4.16208" height="4.32156" transform="rotate(180 121.006 113.36)" fill="#FEF9E1"/>
<rect x="111.295" y="111.632" width="58.269" height="8.64311" transform="rotate(180 111.295 111.632)" fill="#FEF9E1"/>
<rect x="121.006" y="109.039" width="27.7472" height="3.45724" transform="rotate(180 121.006 109.039)" fill="#FEF9E1"/>
<rect x="121.006" y="109.039" width="27.7472" height="2.59293" transform="rotate(180 121.006 109.039)" fill="#FEF9E1"/>
<rect x="116.844" y="108.175" width="27.7472" height="3.45724" transform="rotate(180 116.844 108.175)" fill="#FEF9E1"/>
<rect x="115.457" y="107.31" width="27.7472" height="2.59293" transform="rotate(180 115.457 107.31)" fill="#FEF9E1"/>
<rect x="115.457" y="106.446" width="4.16208" height="1.72862" transform="rotate(180 115.457 106.446)" fill="#FEF9E1"/>
<rect x="115.457" y="105.582" width="4.16208" height="1.29646" transform="rotate(180 115.457 105.582)" fill="#FEF9E1"/>
<rect x="114.07" y="104.717" width="4.85574" height="0.864311" transform="rotate(180 114.07 104.717)" fill="#FEF9E1"/>
<rect x="112.682" y="103.853" width="1.38736" height="0.864311" transform="rotate(180 112.682 103.853)" fill="#FEF9E1"/>
<rect x="426.225" y="68.4163" width="34.684" height="27.2258" transform="rotate(180 426.225 68.4163)" fill="#FEF9E1"/>
<rect x="51.6386" y="111.632" width="49.9449" height="62.2304" transform="rotate(180 51.6386 111.632)" fill="#FEF9E1"/>
<rect x="115.457" y="86.5668" width="52.7196" height="3.45724" transform="rotate(180 115.457 86.5668)" fill="#FEF9E1"/>
<rect x="89.0972" y="88.2954" width="52.7196" height="3.45724" transform="rotate(180 89.0972 88.2954)" fill="#FEF9E1"/>
<path d="M390.848 40.7583H426.225L417.554 32.1152H408.883H398.825L390.848 40.7583Z" fill="#FEF9E1"/>
<path d="M426.225 34.276L419.288 23.9042H394.316L390.848 33.4117L398.825 32.1152H408.883H417.554L426.225 34.276Z" fill="#FEF9E1"/>
<path d="M419.982 17.8541H394.316L388.073 25.2007L394.316 23.9042H419.288L426.225 26.065L419.982 17.8541Z" fill="#FEF9E1"/>
<path d="M419.288 23.9042L426.225 26.065L419.982 17.8541H394.316L388.073 25.2007L394.316 23.9042M419.288 23.9042L426.225 34.276L417.554 32.1152M419.288 23.9042H394.316M394.316 23.9042L390.848 33.4117L398.825 32.1152M398.825 32.1152H408.883H417.554M398.825 32.1152L390.848 40.7583H426.225L417.554 32.1152" stroke="black"/>
<rect x="315.237" y="68.4163" width="110.295" height="19.0148" transform="rotate(180 315.237 68.4163)" fill="#FEF9E1"/>
<rect x="220.896" y="49.4014" width="55.4943" height="17.2862" transform="rotate(180 220.896 49.4014)" fill="#FEF9E1"/>
<path d="M182.05 68.4163H73.8363V49.4014H182.05V68.4163Z" fill="#FEF9E1"/>
<rect x="101.583" y="49.4014" width="99.8898" height="17.2862" transform="rotate(180 101.583 49.4014)" fill="#FEF9E1"/>
<rect x="87.7099" y="111.632" width="86.0162" height="28.5223" transform="rotate(180 87.7099 111.632)" fill="#FEF9E1"/>
<rect x="315.237" y="68.4163" width="110.295" height="19.0148" transform="rotate(180 315.237 68.4163)" fill="#FEF9E1"/>
<rect x="315.237" y="68.4163" width="110.295" height="19.0148" transform="rotate(180 315.237 68.4163)" fill="#FEF9E1"/>
<rect x="391.541" y="68.4163" width="49.9449" height="19.0148" transform="rotate(180 391.541 68.4163)" fill="#FEF9E1"/>
<rect x="383.217" y="49.4014" width="106.133" height="17.2862" transform="rotate(180 383.217 49.4014)" fill="#FEF9E1"/>
<path d="M63.4311 83.1095V112.064" stroke="black"/>
<path d="M411.658 17.4219L409.577 2.72861L406.802 0.999992L404.721 2.72861V17.4219H411.658Z" fill="#FEF9E1"/>
<path d="M404.721 17.4219L401.947 2.72861L399.865 0.999992L397.784 2.72861L399.832 17.1836L400.912 17.2363L404.721 17.4219Z" fill="#FEF9E1"/>
<path d="M395.01 4.02508L392.235 3.16077L390.848 4.45724L397.784 17.4219H398.478H399.865L399.778 17.181L395.01 4.02508Z" fill="#FEF9E1"/>
<path d="M397.784 17.4219L389.46 6.61802L385.992 5.7537V7.05017L394.316 17.4219H397.784Z" fill="#FEF9E1"/>
<path d="M416.514 17.4219V3.16077L413.739 0.999992L411.658 2.72861V17.4219H416.514Z" fill="#FEF9E1"/>
<path d="M419.982 17.4219L429 7.91448V5.32155L426.225 5.7537L417.901 17.4219H419.982Z" fill="#FEF9E1"/>
<path d="M417.901 17.4219L424.838 4.02508L423.451 2.72861L419.982 3.16077L416.514 17.4219H417.901Z" fill="#FEF9E1"/>
<path d="M417.901 17.4219L426.225 5.7537L429 5.32155V7.91448L419.982 17.4219H417.901ZM417.901 17.4219L424.838 4.02508L423.451 2.72861L419.982 3.16077L416.514 17.4219M417.901 17.4219H416.514M416.514 17.4219V3.16077L413.739 0.999992L411.658 2.72861V17.4219M416.514 17.4219H411.658M411.658 17.4219L409.577 2.72861L406.802 0.999992L404.721 2.72861V17.4219M411.658 17.4219H404.721M404.721 17.4219L401.947 2.72861L399.865 0.999992L397.784 2.72861L399.832 17.1836M404.721 17.4219H401.253L400.912 17.2363M404.721 17.4219L400.912 17.2363M399.865 17.4219L399.778 17.181M399.865 17.4219H398.478H397.784M399.865 17.4219L399.832 17.1836M397.784 17.4219L390.848 4.45724L392.235 3.16077L395.01 4.02508L399.778 17.181M397.784 17.4219L389.46 6.61802L385.992 5.7537V7.05017L394.316 17.4219M397.784 17.4219H394.316M394.316 17.4219H400.559M399.778 17.181L399.832 17.1836M400.912 17.2363L399.832 17.1836" stroke="#D2B48C"/>
<path d="M87.0162 93.0491C87.0162 96.1606 87.4786 102.412 88.4035 102.557H110.601L121.006 106.878V113.36H116.844L116.151 111.632H63.4311" stroke="black"/>
<path d="M77.9984 97.8028V96.5064H73.8363V99.5315H80.0794V95.2099H71.0616V101.26H83.5478V92.617H67.5932V105.582H71.7552H80.0794H90.4846H96.034H111.295L120.313 109.039H121.006H121.7" stroke="#D2B48C"/>
<ellipse cx="90.4846" cy="109.039" rx="2.77472" ry="1.72862" transform="rotate(180 90.4846 109.039)" fill="black"/>
<ellipse cx="91.8719" cy="109.039" rx="1.38736" ry="0.864311" transform="rotate(180 91.8719 109.039)" fill="#D2B48C"/>
<path d="M96.0341 111.632L98.1151 115.953L95.3404 116.386L92.5657 112.064L96.0341 111.632Z" fill="#FEF9E1" stroke="#D2B48C"/>
<path d="M91.8719 112.064V116.386V116.818H89.0972V112.064H91.8719Z" fill="#FEF9E1" stroke="#D2B48C"/>
<path d="M88.4036 112.064L86.3226 116.818L82.8542 115.953L84.9352 112.064H88.4036Z" fill="#FEF9E1" stroke="#D2B48C"/>
<path d="M120.313 106.014V102.989V102.124L116.844 100.396V104.717L120.313 106.014Z" fill="#FEF9E1"/>
<path d="M120.313 106.014V106.446V102.989M120.313 106.014L116.844 104.717M120.313 106.014V102.989M120.313 102.989V102.124L116.844 100.396V104.717M116.844 105.149V104.717" stroke="#D2B48C"/>
<path d="M114.07 103.421V99.0993L110.601 97.8028V102.557L114.07 103.421Z" fill="#FEF9E1" stroke="#D2B48C"/>
<path d="M114.07 103.853V102.989" stroke="#D2B48C"/>
<path d="M106.334 102.14L106.492 95.6587L103.076 93.4654L102.971 97.7864L102.866 102.107L106.334 102.14Z" fill="#FEF9E1" stroke="#D2B48C"/>
<path d="M99.5024 95.642V102.124L96.0341 102.557V96.9385L94.6467 93.9134L97.4214 93.0491L99.5024 95.642Z" fill="#FEF9E1" stroke="#D2B48C"/>
<path d="M112.682 86.9989V89.5919L109.908 90.8883V86.9989" stroke="#D2B48C"/>
<path d="M105.746 86.9989V90.024H101.583V86.9989" stroke="#D2B48C"/>
<path d="M98.1151 86.9989V90.024H93.953V87.4311" stroke="#D2B48C"/>
<path d="M87.0162 92.617L95.3403 91.7527H100.196H105.052L114.763 93.4813" stroke="#6FB272"/>
<path d="M108.52 92.617V94.3456L109.214 95.2099L111.295 94.7777L110.601 93.9134" stroke="#6FB272"/>
<path d="M114.07 93.4813L128.637 90.3874M245.175 77.9237C218.912 70.7256 203.48 71.9793 175.113 80.5166L151.528 85.2703M245.175 77.9237C250.372 88.1111 255.439 92.4119 279.165 90.4562M245.175 77.9237L231.301 87.4311L225.752 88.7276M279.165 90.4562C308.977 83.4902 324.436 81.1947 341.596 90.4562L364.488 104.285C364.488 104.285 372.044 115.58 370.037 120.275C357.274 125.806 342.059 126.901 336.047 126.757M279.165 90.4562L279.859 97.8028L275.697 101.26V103.421M128.637 90.3874L132.799 85.2703V80.9488M128.637 90.3874L151.528 85.2703M151.528 85.2703C150.179 87.1195 150.525 90.6103 151.528 94.2722M157.771 114.225L155.69 104.717C154.384 102.201 152.589 98.1412 151.528 94.2722M151.528 94.2722C193.704 102.628 191.762 114.657 199.392 109.903" stroke="#6FB272"/>
<path d="M225.058 89.5919L225.752 90.8884L226.446 92.1848L225.058 92.617H223.671V91.3205L220.896 92.1848L220.203 90.8884L220.896 89.5919H225.058Z" fill="#FEE2B8"/>
<path d="M226.446 88.7276L225.058 89.5919M225.058 89.5919L225.752 90.8884L226.446 92.1848L225.058 92.617H223.671V91.3205L220.896 92.1848L220.203 90.8884L220.896 89.5919H225.058Z" stroke="#D2B48C"/>
<path d="M155.69 104.285H158.465" stroke="#6FB272"/>
<path d="M157.772 104.285L158.465 106.446" stroke="#6FB272"/>
<path d="M158.465 105.149H164.708" stroke="#6FB272"/>
<path d="M158.465 106.446H159.853H161.24H161.934L163.321 108.175V109.039H161.934V109.903L161.24 110.767L160.546 111.2H159.853L159.159 110.767L158.465 109.903V109.039H157.078V108.175L158.465 106.446Z" fill="#FFB7A8" stroke="#FFB7A8"/>
<path d="M160.546 106.446C161.101 107.483 160.777 108.031 160.546 108.175" stroke="#DD9534"/>
<path d="M160.546 106.446C159.436 106.446 159.159 107.31 159.159 107.742" stroke="#E89D39"/>
<path d="M162.627 119.411L157.771 114.225L160.546 120.707L162.627 119.411Z" fill="#9DA7FA"/>
<path d="M157.078 114.225L156.944 114.35L154.997 122.436L158.465 120.707L157.078 114.225Z" fill="#9DA7FA"/>
<path d="M156.97 114.238C154.273 114.58 153.144 114.947 152.916 115.089L151.528 116.386L150.835 117.25L150.141 120.275L154.303 116.818L156.944 114.35L156.97 114.238Z" fill="#9DA7FA"/>
<path d="M164.708 116.386L157.771 114.225L161.934 117.682L164.015 118.978L165.402 118.546V118.114L164.708 116.386Z" fill="#9DA7FA"/>
<path d="M157.078 114.225L158.465 120.707L154.997 122.436L156.944 114.35M157.078 114.225L156.944 114.35M157.078 114.225C157.042 114.229 157.006 114.234 156.97 114.238M157.771 114.225L164.708 116.386L165.402 118.114V118.546L164.015 118.978L161.934 117.682L157.771 114.225ZM157.771 114.225L162.627 119.411L160.546 120.707L157.771 114.225ZM157.771 114.225L156.97 114.238M156.944 114.35L154.303 116.818L150.141 120.275L150.835 117.25L151.528 116.386L152.916 115.089C153.144 114.947 154.273 114.58 156.97 114.238M156.944 114.35L156.97 114.238" stroke="#9DA7FA"/>
<rect x="89.0972" y="87.4311" width="4.16208" height="2.59293" transform="rotate(180 89.0972 87.4311)" fill="#FEF9E1"/>
<path d="M412.352 45.512H401.947V51.13H412.352V58.4767H401.947H390.848V53.723H376.974V58.4767H367.263V53.723H359.632V48.1049H367.263V41.1905H359.632V36.4367H346.452V42.9191H329.804V36.4367H310.381V42.0548H304.138V39.4618H296.507V47.2406H304.138V54.5873H293.039V61.9339H268.066V54.5873H246.562V61.9339H222.977V54.5873H211.185V39.4618H195.924V42.9191H182.744V39.4618H173.726V57.6124H153.609V54.5873H125.169V61.9339H89.7909V42.0548H72.449V36.4367H47.4765V45.0799H28.7472V39.4618H12.7926V52.4265H34.2966V69.2806H12.7926V88.7276H34.2966H55.107V106.446H19.0357V93.0491H44.0081V101.692H28.7472V96.9385H38.4587V99.0993H34.2966" stroke="#D2B48C"/>
<path d="M403.334 58.4767V56.3159H400.559V55.0194" stroke="#D2B48C"/>
<path d="M403.334 58.4767V61.0696H410.271V64.0947H404.028V62.7982H406.109" stroke="#D2B48C"/>
<path d="M390.848 58.4767V61.0696H388.073V59.7731H389.46" stroke="#D2B48C"/>
<path d="M367.263 53.2908V51.5622H372.118H374.893V49.8336V48.1049H370.731V49.8336H372.118" stroke="#D2B48C"/>
<path d="M242.4 59.341H237.545V57.1802H242.4V58.9088" stroke="#D2B48C"/>
<path d="M227.139 58.9088H232.689V58.0445V56.7481H227.139V58.9088Z" stroke="#D2B48C"/>
<path d="M281.94 59.341H287.489V56.3159H281.94V59.341Z" stroke="#D2B48C"/>
<path d="M276.391 56.7481V59.341H271.535V56.7481H276.391Z" stroke="#D2B48C"/>
<path d="M238.238 49.4014V53.723H232.689V49.4014" stroke="#D2B48C"/>
<path d="M160.546 57.6124V61.0696H156.384V62.7982H154.303H151.528" stroke="#D2B48C"/>
<path d="M141.123 54.5873V51.13H136.961V52.8587H139.042" stroke="#D2B48C"/>
<path d="M86.3225 41.6226L87.0162 37.7332L84.2415 36.4368V34.276" stroke="#D2B48C"/>
<path d="M62.0437 36.8689L63.4311 39.894L59.269 41.1905L62.0437 44.2155" stroke="#D2B48C"/>
<path d="M34.9902 58.9088L41.9271 58.0445L43.3144 61.0696L39.846 63.2304L37.765 61.5018L39.1523 60.2053H41.2334" stroke="#D2B48C"/>
<path d="M12.7925 45.512H6.54941V48.5371H9.32413V46.8085" stroke="#D2B48C"/>
<path d="M107.827 61.9339V58.0445M107.827 58.0445V55.0194M107.827 58.0445H111.295V55.4516" stroke="#D2B48C"/>
<path d="M107.827 58.0445H105.052H104.358V55.4516" stroke="#D2B48C"/>
<path d="M58.5754 118.546C65.2924 117.327 79.5955 114.38 79.3857 112.064H63.4311L58.5754 112.496C58.7596 113.603 55.8081 114.822 53.026 115.953C52.1011 116.818 50.2513 118.892 50.2513 120.275V121.571V123.732L53.026 122.436C53.7196 121.427 55.8007 119.238 58.5754 118.546Z" fill="#FEF9E1" stroke="#D2B48C"/>
<path d="M68.2869 118.546C73.1402 117.083 83.1741 113.616 82.8541 112.064H79.3857L77.9984 113.793L59.2691 118.546C58.8066 118.978 58.5754 120.275 58.5754 120.707V124.596L61.3501 123.3C62.275 122.004 64.9572 119.238 68.2869 118.546Z" fill="#FEF9E1" stroke="#D2B48C"/>
<path d="M196.826 110.761C196.826 111.284 197.028 111.724 197.222 112.231C197.426 112.764 197.75 113.227 198.013 113.743C198.183 114.078 198.389 114.314 198.953 114.431" stroke="#820000" stroke-linecap="square"/>
<path d="M199.117 112.29C200.041 112.29 200.703 112.668 201.508 112.89C202.213 113.086 202.845 113.362 203.535 113.564C205.107 114.027 207.012 112.799 207.625 112.035" stroke="#820000" stroke-linecap="square"/>
<path d="M198.299 111.882C198.997 111.65 199.342 111.074 199.853 110.739C200.131 110.556 200.242 110.415 200.626 110.291C201.153 110.121 201.677 109.998 202.249 109.895C203.915 109.593 205.682 109.752 207.343 109.487C207.968 109.387 208.714 109.416 209.343 109.487" stroke="#820000" stroke-linecap="square"/>
<path d="M207.134 107.397C207.164 106.914 207.767 106.882 208.311 106.735C208.603 106.656 208.925 106.684 209.234 106.63C209.881 106.518 210.514 106.48 211.184 106.48C212.186 106.48 213.177 106.4 214.088 106.684" stroke="#820000" stroke-linecap="square"/>
<path d="M203.453 114.329C203.453 114.825 203.386 115.266 203.939 115.654C204.377 115.961 205.032 116.223 205.707 116.263C206.177 116.291 206.631 116.21 207.053 116.368" stroke="#820000" stroke-linecap="square"/>
<path d="M206.807 111.577C207.381 111.577 209.417 111.309 209.757 111.732C209.943 111.964 210.834 112.188 211.243 112.188C211.682 112.188 212.156 112.188 212.579 112.106C213.011 112.023 213.382 111.882 213.843 111.882" stroke="#820000" stroke-linecap="square"/>
<path d="M202.635 109.079C202.589 108.792 202.434 108.624 202.271 108.366C202.058 108.028 201.947 107.504 202.471 107.25C203.218 106.888 204.601 106.888 205.498 106.888" stroke="#820000" stroke-linecap="square"/>
<path d="M182.744 104.285C182.744 104.631 182.744 106.734 182.744 107.742L185.519 109.903" stroke="#6FB272"/>
<path d="M202.881 106.882C203.093 106.866 203.462 106.434 203.627 106.323C204.109 105.999 204.307 105.541 204.93 105.302C205.682 105.014 206.528 105.123 207.407 105.123C208.04 105.123 208.673 105.123 209.305 105.123" stroke="#820000" stroke-linecap="square"/>
<path d="M208.429 106.943C208.429 107.404 208.308 107.884 208.646 108.304C209.068 108.83 209.656 109.29 210.517 109.547C211.045 109.705 211.424 109.854 212.047 109.854C212.906 109.854 213.719 109.672 214.562 109.672" stroke="#820000" stroke-linecap="square"/>
<path d="M204.536 109.732C204.487 110.033 204.083 110.334 204.152 110.635C204.179 110.757 205.38 111.063 205.558 111.121C206.002 111.264 206.525 111.118 206.969 111.235C207.254 111.31 207.726 111.249 208.04 111.249" stroke="#820000" stroke-linecap="square"/>
<path d="M208.137 112.098C207.631 112.219 207.201 112.485 206.785 112.697C206.608 112.788 206.204 112.904 206.19 113.068C206.152 113.524 206.751 113.647 207.283 113.883C207.853 114.137 208.318 114.547 209.013 114.692C209.547 114.803 209.907 114.945 210.501 114.978C211.107 115.012 211.715 115.008 212.323 115.008" stroke="#820000" stroke-linecap="square"/>
<path d="M198.695 111.916C198.336 111.889 198.068 111.704 197.667 111.835C197.007 112.05 197.137 112.486 197.137 112.872C197.137 113.617 196.991 114.439 197.289 115.163C197.611 115.949 197.93 116.829 199.182 117.219C199.75 117.396 200.392 117.556 201.031 117.556" stroke="#820000" stroke-linecap="square"/>
<path d="M196.748 110.339C196.748 109.706 196.507 109.049 197.484 108.701C197.932 108.542 198.188 108.338 198.787 108.338C199.728 108.338 200.655 108.459 201.615 108.459" stroke="#820000" stroke-linecap="square"/>
<path d="M196.845 108.459C197.265 108.008 197.405 107.472 197.862 107.037C198.568 106.365 199.377 105.752 200.647 105.521C201.958 105.283 203.36 105.123 204.72 105.123C205.251 105.123 205.702 105.094 206.185 105.245C206.512 105.347 206.768 105.427 207.164 105.427" stroke="#820000" stroke-linecap="square"/>
<path d="M205.412 106.154C205.617 105.95 206.144 105.992 206.482 105.969C207.049 105.931 207.575 105.851 208.148 105.851C208.863 105.851 209.577 105.973 210.279 105.973C210.684 105.973 211.046 106.094 211.447 106.094C211.934 106.094 212.42 106.094 212.907 106.094" stroke="#820000" stroke-linecap="square"/>
<path d="M199.474 117.07C199.474 116.766 199.855 115.797 200.496 115.797C201.858 115.797 203.155 115.433 204.536 115.433" stroke="#820000" stroke-linecap="square"/>
<path d="M275.822 103.323C275.149 103.323 274.819 103.394 274.305 103.679C273.367 104.198 273.26 104.988 272.663 105.65C272.277 106.079 271.96 106.397 271.789 106.88C271.616 107.372 271.372 107.871 271.106 108.348C270.875 108.762 270.711 109.15 270.711 109.591" stroke="#723EB5" stroke-linecap="square"/>
<path d="M271.35 109.89C271.845 109.582 272.331 109.358 272.708 108.961C272.901 108.757 272.999 108.525 273.191 108.323C273.387 108.117 273.638 107.97 273.79 107.753C274.026 107.417 274.585 107.236 274.864 106.932C274.966 106.821 275.312 106.63 275.503 106.606" stroke="#723EB5" stroke-linecap="square"/>
<path d="M275.503 106.606C275.503 107.106 274.864 107.567 274.864 108.074C274.864 108.536 275.084 108.934 275.174 109.387C275.277 109.895 275.343 110.366 275.343 110.885" stroke="#723EB5" stroke-linecap="square"/>
<path d="M275.663 110.835C275.683 110.708 275.873 110.627 275.938 110.506C276.041 110.313 276.195 110.136 276.297 109.945C276.448 109.664 276.685 109.378 276.856 109.094C277.15 108.605 277.093 108.046 277.384 107.563C277.64 107.137 277.939 106.655 278.058 106.208" stroke="#723EB5" stroke-linecap="square"/>
<path d="M278.058 106.208C278.245 106.208 278.431 106.208 278.617 106.208C278.829 106.208 278.922 106.29 279.114 106.308C279.356 106.33 279.488 106.52 279.718 106.584C280.06 106.679 280.394 106.788 280.756 106.855C281.469 106.987 282.156 107.103 282.832 107.281C283.11 107.354 283.506 107.502 283.808 107.502" stroke="#723EB5" stroke-linecap="square"/>
<path d="M283.808 107.502C283.562 107.357 283.27 107.281 283.187 107.054C283.079 106.757 282.726 106.623 282.406 106.407C282.269 106.315 282.243 106.184 282.118 106.087C281.918 105.931 281.649 105.816 281.448 105.655C281.111 105.387 280.747 105.133 280.414 104.865C279.586 104.197 277.91 103.763 276.696 103.472C276.207 103.355 275.725 103.229 275.254 103.085C275.158 103.056 275.092 103.024 274.984 103.024C274.807 103.024 274.73 102.925 274.545 102.925" stroke="#723EB5" stroke-linecap="square"/>
<path d="M390.848 41.1905V48.9693H383.911V31.683H276.391V48.9693H221.59V31.683H164.708V48.9693H101.583V31.683H1.00001V112.064H63.4311" stroke="black"/>
<path d="M426.919 41.1905V68.8484H341.596V49.4014H315.237V68.8484H204.248V49.4014H182.744V68.8484L84.2415 68.4163H73.1426V49.4014H51.6386V83.1095H64.1248" stroke="black"/>
<path d="M62.7375 83.1095H102.277H115.457V86.9989H89.7909C87.0162 86.9989 86.785 91.3205 87.0162 93.4813" stroke="black"/>
</svg>
