<svg width="1224" height="268" viewBox="0 0 1224 268" fill="none" xmlns="http://www.w3.org/2000/svg">
<rect x="1217.1" y="268" width="1216.1" height="196.827" transform="rotate(180 1217.1 268)" fill="#A31D1D"/>
<rect x="343.635" y="165.104" width="166.366" height="6.41031" transform="rotate(180 343.635 165.104)" fill="#FEF9E1"/>
<rect x="343.635" y="167.668" width="11.8833" height="6.41031" transform="rotate(180 343.635 167.668)" fill="#FEF9E1"/>
<rect x="315.908" y="165.104" width="166.366" height="12.8206" transform="rotate(180 315.908 165.104)" fill="#FEF9E1"/>
<rect x="343.635" y="161.258" width="79.222" height="5.12824" transform="rotate(180 343.635 161.258)" fill="#FEF9E1"/>
<rect x="343.635" y="161.258" width="79.222" height="3.84618" transform="rotate(180 343.635 161.258)" fill="#FEF9E1"/>
<rect x="331.752" y="159.976" width="79.222" height="5.12824" transform="rotate(180 331.752 159.976)" fill="#FEF9E1"/>
<rect x="327.791" y="158.694" width="79.222" height="3.84618" transform="rotate(180 327.791 158.694)" fill="#FEF9E1"/>
<rect x="327.791" y="157.411" width="11.8833" height="2.56413" transform="rotate(180 327.791 157.411)" fill="#FEF9E1"/>
<rect x="327.791" y="156.129" width="11.8833" height="1.92309" transform="rotate(180 327.791 156.129)" fill="#FEF9E1"/>
<rect x="323.83" y="154.847" width="13.8638" height="1.28206" transform="rotate(180 323.83 154.847)" fill="#FEF9E1"/>
<rect x="319.869" y="153.565" width="3.96112" height="1.28206" transform="rotate(180 319.869 153.565)" fill="#FEF9E1"/>
<rect x="1215.08" y="101.001" width="99.0275" height="40.3849" transform="rotate(180 1215.08 101.001)" fill="#FEF9E1"/>
<rect x="145.58" y="165.104" width="142.6" height="92.3084" transform="rotate(180 145.58 165.104)" fill="#FEF9E1"/>
<rect x="327.791" y="127.924" width="150.522" height="5.12825" transform="rotate(180 327.791 127.924)" fill="#FEF9E1"/>
<rect x="252.53" y="130.488" width="150.522" height="5.12825" transform="rotate(180 252.53 130.488)" fill="#FEF9E1"/>
<path d="M1114.07 59.9748H1215.08L1190.32 47.1542H1165.56H1136.85L1114.07 59.9748Z" fill="#FEF9E1"/>
<path d="M1215.08 50.3593L1195.27 34.9746H1123.97L1114.07 49.0773L1136.85 47.1542H1165.56H1190.32L1215.08 50.3593Z" fill="#FEF9E1"/>
<path d="M1197.25 26.0002H1123.97L1106.15 36.8977L1123.97 34.9746H1195.27L1215.08 38.1797L1197.25 26.0002Z" fill="#FEF9E1"/>
<path d="M1195.27 34.9746L1215.08 38.1797L1197.25 26.0002H1123.97L1106.15 36.8977L1123.97 34.9746M1195.27 34.9746L1215.08 50.3593L1190.32 47.1542M1195.27 34.9746H1123.97M1123.97 34.9746L1114.07 49.0773L1136.85 47.1542M1136.85 47.1542H1165.56H1190.32M1136.85 47.1542L1114.07 59.9748H1215.08L1190.32 47.1542" stroke="black"/>
<rect x="898.19" y="101.001" width="314.908" height="28.2054" transform="rotate(180 898.19 101.001)" fill="#FEF9E1"/>
<rect x="628.835" y="72.7954" width="158.444" height="25.6412" transform="rotate(180 628.835 72.7954)" fill="#FEF9E1"/>
<path d="M517.924 101.001H208.958V72.7954H517.924V101.001Z" fill="#FEF9E1"/>
<rect x="288.18" y="72.7954" width="285.199" height="25.6412" transform="rotate(180 288.18 72.7954)" fill="#FEF9E1"/>
<rect x="248.569" y="165.104" width="245.588" height="42.308" transform="rotate(180 248.569 165.104)" fill="#FEF9E1"/>
<rect x="898.19" y="101.001" width="314.908" height="28.2054" transform="rotate(180 898.19 101.001)" fill="#FEF9E1"/>
<rect x="898.19" y="101.001" width="314.908" height="28.2054" transform="rotate(180 898.19 101.001)" fill="#FEF9E1"/>
<rect x="1116.05" y="101.001" width="142.6" height="28.2054" transform="rotate(180 1116.05 101.001)" fill="#FEF9E1"/>
<rect x="1092.28" y="72.7954" width="303.024" height="25.6412" transform="rotate(180 1092.28 72.7954)" fill="#FEF9E1"/>
<path d="M179.25 122.796V165.745" stroke="black"/>
<path d="M1173.49 25.3592L1167.54 3.56412L1159.62 1L1153.68 3.56412V25.3592H1173.49Z" fill="#FEF9E1"/>
<path d="M1153.68 25.3592L1145.76 3.56412L1139.82 1L1133.88 3.56412L1139.72 25.0057L1142.8 25.0838L1153.68 25.3592Z" fill="#FEF9E1"/>
<path d="M1125.95 5.48721L1118.03 4.20515L1114.07 6.12824L1133.88 25.3592H1135.86H1139.82L1139.57 25.0018L1125.95 5.48721Z" fill="#FEF9E1"/>
<path d="M1133.88 25.3592L1110.11 9.3334L1100.21 8.05134V9.97443L1123.97 25.3592H1133.88Z" fill="#FEF9E1"/>
<path d="M1187.35 25.3592V4.20515L1179.43 1L1173.49 3.56412V25.3592H1187.35Z" fill="#FEF9E1"/>
<path d="M1197.25 25.3592L1223 11.2565V7.41031L1215.08 8.05134L1191.31 25.3592H1197.25Z" fill="#FEF9E1"/>
<path d="M1191.31 25.3592L1211.12 5.48721L1207.16 3.56412L1197.25 4.20515L1187.35 25.3592H1191.31Z" fill="#FEF9E1"/>
<path d="M1191.31 25.3592L1215.08 8.05134L1223 7.41031V11.2565L1197.25 25.3592H1191.31ZM1191.31 25.3592L1211.12 5.48721L1207.16 3.56412L1197.25 4.20515L1187.35 25.3592M1191.31 25.3592H1187.35M1187.35 25.3592V4.20515L1179.43 1L1173.49 3.56412V25.3592M1187.35 25.3592H1173.49M1173.49 25.3592L1167.54 3.56412L1159.62 1L1153.68 3.56412V25.3592M1173.49 25.3592H1153.68M1153.68 25.3592L1145.76 3.56412L1139.82 1L1133.88 3.56412L1139.72 25.0057M1153.68 25.3592H1143.78L1142.8 25.0838M1153.68 25.3592L1142.8 25.0838M1139.82 25.3592L1139.57 25.0018M1139.82 25.3592H1135.86H1133.88M1139.82 25.3592L1139.72 25.0057M1133.88 25.3592L1114.07 6.12824L1118.03 4.20515L1125.95 5.48721L1139.57 25.0018M1133.88 25.3592L1110.11 9.3334L1100.21 8.05134V9.97443L1123.97 25.3592M1133.88 25.3592H1123.97M1123.97 25.3592H1141.8M1139.57 25.0018L1139.72 25.0057M1142.8 25.0838L1139.72 25.0057" stroke="#D2B48C"/>
<path d="M246.588 137.54C246.588 142.155 247.909 151.429 250.549 151.642H313.927L343.635 158.053V167.668H331.752L329.771 165.104H179.249" stroke="black"/>
<path d="M220.841 144.591V142.668H208.958V147.155H226.783V140.745H201.036V149.719H236.686V136.898H191.133V156.129H203.016H226.783H256.491H272.335H315.908L341.655 161.258H343.635H345.616" stroke="#D2B48C"/>
<ellipse cx="256.491" cy="161.258" rx="7.92221" ry="2.56412" transform="rotate(180 256.491 161.258)" fill="black"/>
<ellipse cx="260.452" cy="161.258" rx="3.96109" ry="1.28206" transform="rotate(180 260.452 161.258)" fill="#D2B48C"/>
<path d="M272.336 165.104L278.277 171.514L270.355 172.155L262.433 165.745L272.336 165.104Z" fill="#FEF9E1" stroke="#D2B48C"/>
<path d="M260.452 165.745V172.155V172.796H252.53V165.745H260.452Z" fill="#FEF9E1" stroke="#D2B48C"/>
<path d="M250.55 165.745L244.608 172.796L234.705 171.514L240.647 165.745H250.55Z" fill="#FEF9E1" stroke="#D2B48C"/>
<path d="M341.655 156.77V152.283V151.001L331.752 148.437V154.847L341.655 156.77Z" fill="#FEF9E1"/>
<path d="M341.655 156.77V157.411V152.283M341.655 156.77L331.752 154.847M341.655 156.77V152.283M341.655 152.283V151.001L331.752 148.437V154.847M331.752 155.488V154.847" stroke="#D2B48C"/>
<path d="M323.83 152.924V146.514L313.927 144.591V151.642L323.83 152.924Z" fill="#FEF9E1" stroke="#D2B48C"/>
<path d="M323.83 153.565V152.283" stroke="#D2B48C"/>
<path d="M301.742 151.025L302.194 141.41L292.443 138.157L292.142 144.567L291.841 150.976L301.742 151.025Z" fill="#FEF9E1" stroke="#D2B48C"/>
<path d="M282.238 141.386V151.001L272.336 151.642V143.309L268.374 138.822L276.297 137.54L282.238 141.386Z" fill="#FEF9E1" stroke="#D2B48C"/>
<path d="M319.869 128.565V132.411L311.946 134.334V128.565" stroke="#D2B48C"/>
<path d="M300.063 128.565V133.052H288.18V128.565" stroke="#D2B48C"/>
<path d="M278.277 128.565V133.052H266.394V129.206" stroke="#D2B48C"/>
<path d="M246.588 136.898L270.355 135.616H284.219H298.083L325.81 138.181" stroke="#6FB272"/>
<path d="M307.985 136.899V139.463L309.966 140.745L315.908 140.104L313.927 138.822" stroke="#6FB272"/>
<path d="M323.83 138.181L365.422 133.591M698.154 115.103C623.171 104.426 579.11 106.286 498.118 118.95L430.78 126.001M698.154 115.103C712.993 130.215 727.46 136.594 795.201 133.693M698.154 115.103L658.543 129.206L642.699 131.129M795.201 133.693C880.317 123.36 924.455 119.955 973.451 133.693L1038.81 154.206C1038.81 154.206 1060.38 170.96 1054.65 177.924C1018.21 186.13 974.771 187.754 957.606 187.54M795.201 133.693L797.182 144.591L785.298 149.719V152.924M365.422 133.591L377.305 126.001V119.591M365.422 133.591L430.78 126.001M430.78 126.001C426.928 128.744 427.914 133.922 430.78 139.354M448.605 168.95L442.663 154.847C438.932 151.115 433.807 145.093 430.78 139.354M430.78 139.354C551.197 151.749 545.652 169.591 567.438 162.54" stroke="#6FB272"/>
<path d="M640.718 132.411L642.699 134.334L644.679 136.257L640.718 136.898H636.757V134.975L628.835 136.257L626.854 134.334L628.835 132.411H640.718Z" fill="#FEE2B8"/>
<path d="M644.679 131.129L640.718 132.411M640.718 132.411L642.699 134.334L644.679 136.257L640.718 136.898H636.757V134.975L628.835 136.257L626.854 134.334L628.835 132.411H640.718Z" stroke="#D2B48C"/>
<path d="M442.663 154.206H450.585" stroke="#6FB272"/>
<path d="M448.605 154.206L450.585 157.411" stroke="#6FB272"/>
<path d="M450.585 155.488H468.41" stroke="#6FB272"/>
<path d="M450.585 157.411H454.546H458.507H460.488L464.449 159.976V161.258H460.488V162.54L458.507 163.822L456.527 164.463H454.546L452.566 163.822L450.585 162.54V161.258H446.624V159.976L450.585 157.411Z" fill="#FFB7A8" stroke="#FFB7A8"/>
<path d="M456.527 157.411C458.111 158.95 457.187 159.762 456.527 159.976" stroke="#DD9534"/>
<path d="M456.527 157.411C453.358 157.411 452.566 158.694 452.566 159.335" stroke="#E89D39"/>
<path d="M462.468 176.642L448.605 168.95L456.527 178.565L462.468 176.642Z" fill="#9DA7FA"/>
<path d="M446.624 168.95L446.241 169.136L440.682 181.13L450.585 178.565L446.624 168.95Z" fill="#9DA7FA"/>
<path d="M446.318 168.97C438.617 169.477 435.392 170.021 434.741 170.232L430.78 172.155L428.799 173.437L426.819 177.924L438.702 172.796L446.241 169.136L446.318 168.97Z" fill="#9DA7FA"/>
<path d="M468.41 172.155L448.605 168.95L460.488 174.078L466.43 176.001L470.391 175.36V174.719L468.41 172.155Z" fill="#9DA7FA"/>
<path d="M446.624 168.95L450.585 178.565L440.682 181.13L446.241 169.136M446.624 168.95L446.241 169.136M446.624 168.95C446.521 168.957 446.419 168.963 446.318 168.97M448.605 168.95L468.41 172.155L470.391 174.719V175.36L466.43 176.001L460.488 174.078L448.605 168.95ZM448.605 168.95L462.468 176.642L456.527 178.565L448.605 168.95ZM448.605 168.95L446.318 168.97M446.241 169.136L438.702 172.796L426.819 177.924L428.799 173.437L430.78 172.155L434.741 170.232C435.392 170.021 438.617 169.477 446.318 168.97M446.241 169.136L446.318 168.97" stroke="#9DA7FA"/>
<rect x="252.53" y="129.206" width="11.8834" height="3.84618" transform="rotate(180 252.53 129.206)" fill="#FEF9E1"/>
<path d="M1175.47 67.0261H1145.76V75.3595H1175.47V86.2571H1145.76H1114.07V79.2057H1074.46V86.2571H1046.73V79.2057H1024.94V70.8723H1046.73V60.6158H1024.94V53.5645H987.314V63.18H939.781V53.5645H884.326V61.8979H866.501V58.0517H844.715V69.5903H866.501V80.4878H834.812V91.3853H763.512V80.4878H702.115V91.3853H634.776V80.4878H601.107V58.0517H557.535V63.18H519.904V58.0517H494.157V84.975H436.721V80.4878H355.519V91.3853H254.51V61.8979H204.997V53.5645H133.697V66.3851H80.222V58.0517H34.6693V77.2826H96.0664V102.283H34.6693V131.129H96.0664H155.483V157.411H52.4942V137.54H123.794V150.36H80.222V143.309H107.95V146.514H96.0664" stroke="#D2B48C"/>
<path d="M1149.72 86.257V83.0519H1141.8V81.1288" stroke="#D2B48C"/>
<path d="M1149.72 86.257V90.1032H1169.53V94.5905H1151.7V92.6674H1157.64" stroke="#D2B48C"/>
<path d="M1114.07 86.257V90.1032H1106.15V88.1801H1110.11" stroke="#D2B48C"/>
<path d="M1046.73 78.5647V76.0006H1060.59H1068.52V73.4364V70.8723H1056.63V73.4364H1060.59" stroke="#D2B48C"/>
<path d="M690.232 87.5391H676.368V84.334H690.232V86.8981" stroke="#D2B48C"/>
<path d="M646.66 86.8981H662.504V85.616V83.6929H646.66V86.8981Z" stroke="#D2B48C"/>
<path d="M803.123 87.5391H818.968V83.0519H803.123V87.5391Z" stroke="#D2B48C"/>
<path d="M787.279 83.6929V87.5391H773.415V83.6929H787.279Z" stroke="#D2B48C"/>
<path d="M678.348 72.7954V79.2057H662.504V72.7954" stroke="#D2B48C"/>
<path d="M456.527 84.975V90.1032H444.643V92.6674H438.702H430.78" stroke="#D2B48C"/>
<path d="M401.071 80.4878V75.3596H389.188V77.9237H395.13" stroke="#D2B48C"/>
<path d="M244.608 61.2569L246.588 55.4876L238.666 53.5645V50.3593" stroke="#D2B48C"/>
<path d="M175.288 54.2055L179.25 58.6928L167.366 60.6158L175.288 65.1031" stroke="#D2B48C"/>
<path d="M98.047 86.8981L117.852 85.616L121.814 90.1033L111.911 93.3084L105.969 90.7443L109.93 88.8212H115.872" stroke="#D2B48C"/>
<path d="M34.6693 67.0262H16.8444V71.5134H24.7666V68.9492" stroke="#D2B48C"/>
<path d="M306.005 91.3853V85.616M306.005 85.616V81.1288M306.005 85.616H315.908V81.7699" stroke="#D2B48C"/>
<path d="M306.005 85.616H298.083H296.102V81.7698" stroke="#D2B48C"/>
<path d="M165.386 175.36C184.564 173.552 225.401 169.18 224.802 165.745H179.25L165.386 166.386C165.912 168.027 157.485 169.837 149.541 171.514C146.901 172.796 141.619 175.873 141.619 177.924V179.848V183.053L149.541 181.13C151.522 179.634 157.464 176.386 165.386 175.36Z" fill="#FEF9E1" stroke="#D2B48C"/>
<path d="M193.113 175.36C206.97 173.189 235.619 168.047 234.705 165.745H224.802L220.841 168.309L167.366 175.36C166.046 176.001 165.386 177.924 165.386 178.565V184.335L173.308 182.412C175.949 180.489 183.607 176.386 193.113 175.36Z" fill="#FEF9E1" stroke="#D2B48C"/>
<path d="M560.112 163.812C560.112 164.588 560.688 165.241 561.241 165.992C561.823 166.784 562.749 167.47 563.499 168.235C563.985 168.732 564.575 169.082 566.185 169.256" stroke="#820000" stroke-linecap="square"/>
<path d="M566.652 166.08C569.29 166.08 571.179 166.64 573.477 166.971C575.492 167.261 577.297 167.67 579.265 167.97C583.753 168.656 589.194 166.835 590.944 165.702" stroke="#820000" stroke-linecap="square"/>
<path d="M564.316 165.476C566.31 165.131 567.295 164.276 568.754 163.779C569.548 163.508 569.864 163.299 570.96 163.115C572.466 162.863 573.962 162.68 575.593 162.527C580.349 162.08 585.396 162.316 590.139 161.922C591.924 161.774 594.053 161.817 595.849 161.922" stroke="#820000" stroke-linecap="square"/>
<path d="M589.542 158.823C589.628 158.106 591.349 158.059 592.903 157.84C593.735 157.723 594.654 157.764 595.538 157.685C597.384 157.518 599.192 157.462 601.105 157.462C603.965 157.462 606.796 157.344 609.396 157.764" stroke="#820000" stroke-linecap="square"/>
<path d="M579.032 169.104C579.032 169.84 578.839 170.494 580.42 171.07C581.669 171.525 583.539 171.914 585.468 171.973C586.808 172.014 588.107 171.895 589.309 172.128" stroke="#820000" stroke-linecap="square"/>
<path d="M588.608 165.022C590.247 165.022 596.06 164.625 597.03 165.253C597.562 165.597 600.105 165.929 601.273 165.929C602.527 165.929 603.879 165.929 605.088 165.807C606.321 165.684 607.379 165.476 608.696 165.476" stroke="#820000" stroke-linecap="square"/>
<path d="M576.696 161.318C576.564 160.891 576.124 160.643 575.658 160.259C575.05 159.758 574.733 158.981 576.229 158.604C578.361 158.068 582.309 158.067 584.871 158.067" stroke="#820000" stroke-linecap="square"/>
<path d="M519.904 154.206C519.904 154.719 519.904 157.839 519.904 159.335L527.827 162.54" stroke="#6FB272"/>
<path d="M577.398 158.059C578.003 158.034 579.058 157.394 579.529 157.229C580.904 156.748 581.471 156.069 583.25 155.715C585.396 155.287 587.811 155.45 590.322 155.45C592.128 155.45 593.935 155.45 595.741 155.45" stroke="#820000" stroke-linecap="square"/>
<path d="M593.24 158.149C593.24 158.832 592.894 159.544 593.858 160.168C595.063 160.948 596.742 161.63 599.2 162.012C600.708 162.246 601.789 162.466 603.57 162.466C606.021 162.466 608.343 162.197 610.75 162.197" stroke="#820000" stroke-linecap="square"/>
<path d="M582.123 162.286C581.985 162.732 580.829 163.179 581.026 163.626C581.106 163.806 584.533 164.26 585.041 164.345C586.309 164.558 587.801 164.342 589.071 164.515C589.885 164.626 591.233 164.535 592.128 164.535" stroke="#820000" stroke-linecap="square"/>
<path d="M592.406 165.795C590.961 165.975 589.733 166.37 588.546 166.684C588.039 166.819 586.887 166.99 586.848 167.234C586.738 167.91 588.449 168.093 589.967 168.443C591.594 168.82 592.922 169.429 594.908 169.643C596.431 169.807 597.46 170.019 599.154 170.068C600.886 170.118 602.62 170.113 604.357 170.113" stroke="#820000" stroke-linecap="square"/>
<path d="M565.447 165.525C564.421 165.486 563.658 165.211 562.513 165.405C560.628 165.725 561 166.371 561 166.944C561 168.048 560.583 169.268 561.432 170.342C562.353 171.507 563.262 172.813 566.837 173.391C568.458 173.653 570.291 173.891 572.117 173.891" stroke="#820000" stroke-linecap="square"/>
<path d="M559.888 163.186C559.888 162.247 559.2 161.273 561.988 160.757C563.269 160.52 563.999 160.217 565.709 160.217C568.396 160.217 571.043 160.397 573.785 160.397" stroke="#820000" stroke-linecap="square"/>
<path d="M560.166 160.397C561.364 159.728 561.765 158.934 563.069 158.288C565.084 157.291 567.393 156.382 571.021 156.04C574.763 155.686 578.766 155.45 582.648 155.45C584.166 155.45 585.454 155.407 586.832 155.63C587.765 155.781 588.498 155.9 589.627 155.9" stroke="#820000" stroke-linecap="square"/>
<path d="M584.624 156.979C585.211 156.675 586.716 156.738 587.681 156.704C589.299 156.648 590.8 156.529 592.437 156.529C594.479 156.529 596.517 156.709 598.521 156.709C599.678 156.709 600.711 156.889 601.856 156.889C603.245 156.889 604.635 156.889 606.025 156.889" stroke="#820000" stroke-linecap="square"/>
<path d="M567.67 173.171C567.67 172.719 568.758 171.282 570.589 171.282C574.479 171.282 578.18 170.742 582.123 170.742" stroke="#820000" stroke-linecap="square"/>
<path d="M785.656 152.779C783.734 152.779 782.792 152.885 781.324 153.307C778.647 154.078 778.34 155.249 776.637 156.231C775.533 156.867 774.628 157.338 774.142 158.055C773.647 158.785 772.95 159.526 772.191 160.232C771.53 160.847 771.064 161.422 771.064 162.077" stroke="#723EB5" stroke-linecap="square"/>
<path d="M772.888 162.52C774.3 162.063 775.689 161.732 776.764 161.142C777.317 160.839 777.595 160.495 778.145 160.195C778.703 159.89 779.419 159.673 779.855 159.351C780.529 158.852 782.124 158.584 782.92 158.133C783.212 157.968 784.198 157.685 784.744 157.649" stroke="#723EB5" stroke-linecap="square"/>
<path d="M784.744 157.649C784.744 158.391 782.92 159.074 782.92 159.826C782.92 160.512 783.547 161.101 783.807 161.774C784.098 162.528 784.288 163.226 784.288 163.996" stroke="#723EB5" stroke-linecap="square"/>
<path d="M785.2 163.922C785.258 163.734 785.801 163.614 785.985 163.434C786.281 163.147 786.72 162.885 787.011 162.602C787.441 162.184 788.119 161.761 788.607 161.339C789.448 160.614 789.283 159.786 790.115 159.068C790.846 158.437 791.699 157.721 792.04 157.059" stroke="#723EB5" stroke-linecap="square"/>
<path d="M792.04 157.059C792.572 157.059 793.104 157.059 793.636 157.059C794.241 157.059 794.508 157.18 795.055 157.206C795.745 157.24 796.121 157.522 796.778 157.616C797.756 157.757 798.71 157.919 799.742 158.018C801.778 158.214 803.741 158.386 805.67 158.65C806.465 158.758 807.594 158.978 808.457 158.978" stroke="#723EB5" stroke-linecap="square"/>
<path d="M808.457 158.978C807.754 158.763 806.919 158.65 806.683 158.313C806.375 157.873 805.369 157.675 804.454 157.354C804.062 157.217 803.989 157.024 803.631 156.878C803.06 156.647 802.292 156.476 801.718 156.239C800.756 155.841 799.717 155.464 798.766 155.066C796.401 154.076 791.616 153.431 788.151 153C786.755 152.826 785.378 152.64 784.035 152.426C783.761 152.382 783.57 152.336 783.262 152.336C782.758 152.336 782.537 152.188 782.008 152.188" stroke="#723EB5" stroke-linecap="square"/>
<path d="M1114.07 60.6159V72.1544H1094.26V46.5132H787.279V72.1544H630.815V46.5132H468.41V72.1544H288.18V46.5132H0.999849V165.745H179.249" stroke="black"/>
<path d="M1217.06 60.6158V101.642H973.451V72.7954H898.19V101.642H581.301V72.7954H519.904V101.642L238.666 101.001H206.977V72.7954H145.58V122.796H181.23" stroke="black"/>
<path d="M177.269 122.796H290.161H327.791V128.565H254.511C246.588 128.565 245.928 134.975 246.588 138.181" stroke="black"/>
</svg>
