<svg width="359" height="322" viewBox="0 0 359 322" fill="none" xmlns="http://www.w3.org/2000/svg">
<rect width="108" height="34" transform="matrix(-1 0 0 1 146 128)" fill="#FEF9E1"/>
<rect width="67" height="28" transform="matrix(-1 0 0 1 194 110)" fill="#FEF9E1"/>
<rect width="78" height="32" transform="matrix(-1 0 0 1 116 212)" fill="#FEF9E1"/>
<rect width="96" height="31" transform="matrix(-1 0 0 1 198 193)" fill="#FEF9E1"/>
<rect width="127" height="32" transform="matrix(-1 0 0 1 304 212)" fill="#FEF9E1"/>
<rect width="146" height="32" transform="matrix(-1 0 0 1 358 268)" fill="#FEF9E1"/>
<rect width="146" height="27" transform="matrix(-1 0 0 1 184 266)" fill="#FEF9E1"/>
<rect width="78" height="32" transform="matrix(-1 0 0 1 358 192)" fill="#FEF9E1"/>
<rect width="20" height="82" transform="matrix(-1 0 0 1 358 192)" fill="#FEF9E1"/>
<rect width="32" height="52" transform="matrix(-1 0 0 1 188 268)" fill="#FEF9E1"/>
<rect width="88" height="31" transform="matrix(-1 0 0 1 244 290)" fill="#FEF9E1"/>
<rect width="29" height="84" transform="matrix(-1 0 0 1 67 160)" fill="#FEF9E1"/>
<rect width="34" height="52" transform="matrix(-1 0 0 1 297 110)" fill="#FEF9E1"/>
<rect width="91" height="34" transform="matrix(-1 0 0 1 263 128)" fill="#FEF9E1"/>
<rect width="67" height="35" transform="matrix(-1 0 0 1 330 110)" fill="#FEF9E1"/>
<rect width="59" height="4" transform="matrix(-1 0 0 1 160 13)" fill="#FEF9E1"/>
<rect width="4" height="4" transform="matrix(-1 0 0 1 160 12)" fill="#FEF9E1"/>
<rect width="60" height="8" transform="matrix(-1 0 0 1 151 13)" fill="#FEF9E1"/>
<rect width="27" height="2" transform="matrix(-1 0 0 1 160 16)" fill="#FEF9E1"/>
<rect width="27" height="2" transform="matrix(-1 0 0 1 160 16)" fill="#FEF9E1"/>
<rect width="29" height="3" transform="matrix(-1 0 0 1 156 17)" fill="#FEF9E1"/>
<rect width="29" height="3" transform="matrix(-1 0 0 1 155 17)" fill="#FEF9E1"/>
<rect width="4" height="2" transform="matrix(-1 0 0 1 155 18)" fill="#FEF9E1"/>
<rect width="4" height="2" transform="matrix(-1 0 0 1 155 18)" fill="#FEF9E1"/>
<rect width="6" height="1" transform="matrix(-1 0 0 1 154 20)" fill="#FEF9E1"/>
<rect width="50" height="57" transform="matrix(-1 0 0 1 89 13)" fill="#FEF9E1"/>
<rect width="54" height="3" transform="matrix(-1 0 0 1 155 37)" fill="#FEF9E1"/>
<rect width="54" height="4" transform="matrix(-1 0 0 1 127 34)" fill="#FEF9E1"/>
<path d="M38 297.091V260L30.0755 269.091V278.182V288.727L38 297.091Z" fill="#FEF9E1"/>
<path d="M32.0566 260L22.5472 267.273V293.455L31.2642 297.091L30.0755 288.727V278.182V269.091L32.0566 260Z" fill="#FEF9E1"/>
<path d="M17 266.545V293.455L23.7358 300L22.5472 293.455V267.273L24.5283 260L17 266.545Z" fill="#FEF9E1"/>
<path d="M22.5472 267.273L24.5283 260L17 266.545V293.455L23.7358 300L22.5472 293.455M22.5472 267.273L32.0566 260L30.0755 269.091M22.5472 267.273V293.455M22.5472 293.455L31.2642 297.091L30.0755 288.727M30.0755 288.727V278.182V269.091M30.0755 288.727L38 297.091V260L30.0755 269.091" stroke="black"/>
<rect width="113" height="17" transform="matrix(-1 0 0 1 359 53)" fill="#FEF9E1"/>
<rect width="57" height="16" transform="matrix(-1 0 0 1 263 70)" fill="#FEF9E1"/>
<path d="M222 53H112V70H222V53Z" fill="#FEF9E1"/>
<rect width="102" height="16" transform="matrix(-1 0 0 1 141 70)" fill="#FEF9E1"/>
<rect width="87" height="27" transform="matrix(-1 0 0 1 126 13)" fill="#FEF9E1"/>
<rect width="113" height="17" transform="matrix(-1 0 0 1 359 53)" fill="#FEF9E1"/>
<rect width="39" height="75" transform="matrix(-1 0 0 1 359 70)" fill="#FEF9E1"/>
<path d="M101 40V13" stroke="black"/>
<path d="M15 274.742L2.47368 276.871L1 279.71L2.47368 281.839H15V274.742Z" fill="#FEF9E1"/>
<path d="M15 281.839L2.47368 284.677L1 286.806L2.47368 288.935L14.7968 286.841L14.8417 285.736L15 281.839Z" fill="#FEF9E1"/>
<path d="M3.57895 291.774L2.84211 294.613L3.94737 296.032L15 288.935V288.226V286.806L14.7946 286.896L3.57895 291.774Z" fill="#FEF9E1"/>
<path d="M15 288.935L5.78947 297.452L5.05263 301H6.15789L15 292.484V288.935Z" fill="#FEF9E1"/>
<path d="M15 269.774H2.84211L1 272.613L2.47368 274.742H15V269.774Z" fill="#FEF9E1"/>
<path d="M15 266.226L6.89474 257H4.68421L5.05263 259.839L15 268.355V266.226Z" fill="#FEF9E1"/>
<path d="M15 268.355L3.57895 261.258L2.47368 262.677L2.84211 266.226L15 269.774V268.355Z" fill="#FEF9E1"/>
<path d="M15 268.355L5.05263 259.839L4.68421 257H6.89474L15 266.226V268.355ZM15 268.355L3.57895 261.258L2.47368 262.677L2.84211 266.226L15 269.774M15 268.355V269.774M15 269.774H2.84211L1 272.613L2.47368 274.742H15M15 269.774V274.742M15 274.742L2.47368 276.871L1 279.71L2.47368 281.839H15M15 274.742V281.839M15 281.839L2.47368 284.677L1 286.806L2.47368 288.935L14.7968 286.841M15 281.839V285.387L14.8417 285.736M15 281.839L14.8417 285.736M15 286.806L14.7946 286.896M15 286.806V288.226V288.935M15 286.806L14.7968 286.841M15 288.935L3.94737 296.032L2.84211 294.613L3.57895 291.774L14.7946 286.896M15 288.935L5.78947 297.452L5.05263 301H6.15789L15 292.484M15 288.935V292.484M15 292.484V286.097M14.7946 286.896L14.7968 286.841M14.8417 285.736L14.7968 286.841" stroke="#D2B48C"/>
<path d="M125.169 30C125.169 27.2426 125.643 21.7021 126.59 21.5745H149.337L160 17.7447V12H155.735L155.024 13.5319H101" stroke="black"/>
<path d="M116.769 25.5789V26.6842H112.462V24.1053H118.923V27.7895H109.59V22.6316H122.513V30H106V18.9474H110.308H118.923H129.692H135.436H151.231L160.564 16H161.282H162" stroke="#D2B48C"/>
<ellipse cx="3.5" cy="1.5" rx="3.5" ry="1.5" transform="matrix(-1 0 0 1 133 14)" fill="black"/>
<ellipse cx="2" cy="1.5" rx="2" ry="1.5" transform="matrix(-1 0 0 1 133 14)" fill="#D2B48C"/>
<path d="M134.75 13L137 9.36364L134 9L131 12.6364L134.75 13Z" fill="#FEF9E1" stroke="#D2B48C"/>
<path d="M130 13V9.36364V9H127V13H130Z" fill="#FEF9E1" stroke="#D2B48C"/>
<path d="M127 13L124.75 9L121 9.72727L123.25 13H127Z" fill="#FEF9E1" stroke="#D2B48C"/>
<path d="M160 18.4286V21.4286V22.2857L156 24V19.7143L160 18.4286Z" fill="#FEF9E1"/>
<path d="M160 18.4286V18V21.4286M160 18.4286L156 19.7143M160 18.4286V21.4286M160 21.4286V22.2857L156 24V19.7143M156 19.2857V19.7143" stroke="#D2B48C"/>
<path d="M154 21V24.8462L150 26V21.7692L154 21Z" fill="#FEF9E1" stroke="#D2B48C"/>
<path d="M145.394 21.9422L145.556 27.9485L142.069 29.9811L141.961 25.9768L141.854 21.9726L145.394 21.9422Z" fill="#FEF9E1" stroke="#D2B48C"/>
<path d="M138 27.5455V21.4091L135.143 21V26.3182L134 29.1818L136.286 30L138 27.5455Z" fill="#FEF9E1" stroke="#D2B48C"/>
<path d="M152 36V34L148 33V36" stroke="#D2B48C"/>
<path d="M144 36V33H141V36" stroke="#D2B48C"/>
<path d="M137 36V33H133V35.5714" stroke="#D2B48C"/>
<path d="M126 31L134.4 32H139.3H144.2L154 30" stroke="#6FB272"/>
<path d="M147 30V29.3333L148 29L151 29.1667L150 29.5" stroke="#6FB272"/>
<path d="M154 30.2288L168.889 33.0968M168.889 33.0968L173.143 37.8402V41.8462M168.889 33.0968L192.286 37.8402M192.286 37.8402L216.392 42.2468C245.385 50.1607 261.158 51.3229 288 44.6504L273.82 35.8372L268.148 34.6354M192.286 37.8402C190.907 36.1261 191.26 32.8901 192.286 29.4957M198.667 11L196.54 19.8132C195.204 22.1457 193.37 25.9092 192.286 29.4957M192.286 29.4957C235.393 21.7497 233.407 10.5994 241.206 15.006" stroke="#6FB272"/>
<path d="M266.667 33.1111L267.333 31.7778L268 30.4444L266.667 30H265.333V31.3333L262.667 30.4444L262 31.7778L262.667 33.1111H266.667Z" fill="#FEE2B8"/>
<path d="M268 34L266.667 33.1111M266.667 33.1111L267.333 31.7778L268 30.4444L266.667 30H265.333V31.3333L262.667 30.4444L262 31.7778L262.667 33.1111H266.667Z" stroke="#D2B48C"/>
<path d="M196 20H198" stroke="#6FB272"/>
<path d="M198 20V18" stroke="#6FB272"/>
<path d="M198 20H205" stroke="#6FB272"/>
<path d="M198.556 18H200.111H201.667H202.444L204 16.1818V15.2727H202.444V14.3636L201.667 13.4545L200.889 13H200.111L199.333 13.4545L198.556 14.3636V15.2727H197V16.1818L198.556 18Z" fill="#FFB7A8" stroke="#FFB7A8"/>
<path d="M201 18C201 17.4 201 17.0833 201 17" stroke="#DD9534"/>
<path d="M201 18C200.2 18 200 17.3333 200 17" stroke="#E89D39"/>
<path d="M203.273 6.21053L198.5 10L201.227 5.26316L203.273 6.21053Z" fill="#9DA7FA"/>
<path d="M197.818 10L197.686 9.90832L195.773 4L199.182 5.26316L197.818 10Z" fill="#9DA7FA"/>
<path d="M197.713 9.99015C195.062 9.74029 193.952 9.47232 193.727 9.36842L192.364 8.42105L191.682 7.78947L191 5.57895L195.091 8.10526L197.686 9.90832L197.713 9.99015Z" fill="#9DA7FA"/>
<path d="M205.318 8.42105L198.5 10L202.591 7.47368L204.636 6.52632L206 6.84211V7.15789L205.318 8.42105Z" fill="#9DA7FA"/>
<path d="M197.818 10L199.182 5.26316L195.773 4L197.686 9.90832M197.818 10L197.686 9.90832M197.818 10C197.783 9.99672 197.748 9.99343 197.713 9.99015M198.5 10L205.318 8.42105L206 7.15789V6.84211L204.636 6.52632L202.591 7.47368L198.5 10ZM198.5 10L203.273 6.21053L201.227 5.26316L198.5 10ZM198.5 10L197.713 9.99015M197.686 9.90832L195.091 8.10526L191 5.57895L191.682 7.78947L192.364 8.42105L193.727 9.36842C193.952 9.47232 195.062 9.74029 197.713 9.99015M197.686 9.90832L197.713 9.99015" stroke="#9DA7FA"/>
<rect width="4" height="2" transform="matrix(-1 0 0 1 127 36)" fill="#FEF9E1"/>
<path d="M72.0474 24.716H76.2848V26.6914H66.3975V22.3457H81.9347V30.2469H56.5101V18H93.2345V34.1975H72.0474H50.154V51.9753H72.0474V67.3827H50.154V79.2346H66.3975V74.0988H85.4659V82H110.891V76.8642H128.546V58.6914H164.565V65.4074H193.52V62.642H214.001V79.2346H223.182V76.0741H236.601V79.2346H252.138V65.4074H264.144V58.6914H288.156V65.4074H310.05V58.6914H335.474V65.4074H346.774V72.1235H339.005V79.2346H346.774V76.8642V92H339.005V109.333H349.344V132H310.05V122H292.918H278.483V138H288.156V152.667H252.138V139.333H234.523V151.333H204.998V136.667H189.907V146H179.409V130.667H164.565V122H145.947V132H128.546V151.333H107.892V140.667H82.9599V152.667H63.9325V146H50.154V172H57.3713V199.333H48.8418V220H60.6519V232H76.3987V222.667H94.77V228.667H107.892V211.333H134.793V217.333H159.07V205.333H176.785V214H189.907V232H215.496V221.333H241.084V228.667H257.487V217.333H278.483V226H292.918V206.667H310.633V214H326.38V202.667H339.502V214H346.719V227.333H342.127V242.667H350V270H344.751V285.333H314.57V274H288.325V290.667H264.705V276.667H245.021V284.667H227.962V300.667H235.835V312H209.591V302.667H188.595V314H175.473V298H164.975V285.333H151.852V274H138.074V284.667H101.987C101.987 282.667 101.987 278.8 101.987 279.333C101.987 279.867 88.865 279.556 82.3038 279.333V288.667H60.6519V275.333H39" stroke="#D2B48C"/>
<path d="M317 281V282.875H314V284" stroke="#D2B48C"/>
<path d="M343 205V206.875H341V208" stroke="#D2B48C"/>
<path d="M317 281V278.692H323V276H317.6V277.154H319.4" stroke="#D2B48C"/>
<path d="M343 205V202.692H350V200H343.7V201.154H345.8" stroke="#D2B48C"/>
<path d="M48 213V210.692H55V208H48.7V209.154H50.8" stroke="#D2B48C"/>
<path d="M268 148V145.231H275V142H268.7V143.385H270.8" stroke="#D2B48C"/>
<path d="M72 282V280H69V281H70.5" stroke="#D2B48C"/>
<path d="M256 286V284H254V285H255" stroke="#D2B48C"/>
<path d="M345 257V254H342V255.5H343.5" stroke="#D2B48C"/>
<path d="M229 234V232H226V233H227.5" stroke="#D2B48C"/>
<path d="M305 202V200H302V201H303.5" stroke="#D2B48C"/>
<path d="M59 162V160H56V161H57.5" stroke="#D2B48C"/>
<path d="M158 118V116H155V117H156.5" stroke="#D2B48C"/>
<path d="M97 152V149H94V150.5H95.5" stroke="#D2B48C"/>
<path d="M138 149V146H135V147.5H136.5" stroke="#D2B48C"/>
<path d="M330 96V93H327V94.5H328.5" stroke="#D2B48C"/>
<path d="M326 118V119.333H331.091H334V120.667V122H329.636V120.667H331.091" stroke="#D2B48C"/>
<path d="M214 141V142.333H219.091H222V143.667V145H217.636V143.667H219.091" stroke="#D2B48C"/>
<path d="M110 284H111.333V278.909V276H112.667H114V280.364H112.667V278.909" stroke="#D2B48C"/>
<path d="M269 274V275.333H274.091H277V276.667V278H272.636V276.667H274.091" stroke="#D2B48C"/>
<path d="M295 133V134.333H299.455H302V135.667V137H298.182V135.667H299.455" stroke="#D2B48C"/>
<path d="M284 61H279V64H284V61.6" stroke="#D2B48C"/>
<path d="M268 62H275V62.8V64H268V62Z" stroke="#D2B48C"/>
<path d="M324.435 61H330V65H324.435V61Z" stroke="#D2B48C"/>
<path d="M318.87 64.4286V61H314V64.4286H318.87Z" stroke="#D2B48C"/>
<path d="M170.435 277H176V281H170.435V277Z" stroke="#D2B48C"/>
<path d="M164.87 280.429V277H160V280.429H164.87Z" stroke="#D2B48C"/>
<path d="M270.435 234H276V238H270.435V234Z" stroke="#D2B48C"/>
<path d="M264.87 237.429V234H260V237.429H264.87Z" stroke="#D2B48C"/>
<path d="M136.435 202H142V206H136.435V202Z" stroke="#D2B48C"/>
<path d="M130.87 205.429V202H126V205.429H130.87Z" stroke="#D2B48C"/>
<path d="M52.4348 232H58V236H52.4348V232Z" stroke="#D2B48C"/>
<path d="M46.8696 235.429V232H42V235.429H46.8696Z" stroke="#D2B48C"/>
<path d="M67.7826 136H73V140H67.7826V136Z" stroke="#D2B48C"/>
<path d="M62.5652 139.429V136H58V139.429H62.5652Z" stroke="#D2B48C"/>
<path d="M190.435 152H196V156H190.435V152Z" stroke="#D2B48C"/>
<path d="M184.87 155.429V152H180V155.429H184.87Z" stroke="#D2B48C"/>
<path d="M280 70V66H275V70" stroke="#D2B48C"/>
<path d="M201 64V60H196.846V58H194.769H192" stroke="#D2B48C"/>
<path d="M181 66V69H176V67.5H178.5" stroke="#D2B48C"/>
<path d="M125.25 78L126 81.7059L123 82.9412V85" stroke="#D2B48C"/>
<path d="M99.6667 82L101 79.5294L97 78.4706L99.6667 76" stroke="#D2B48C"/>
<path d="M72 61.3333L79.5 62L81 59.6667L77.25 58L75 59.3333L76.5 60.3333H78.75" stroke="#D2B48C"/>
<path d="M189 223.333L196.5 224L198 221.667L194.25 220L192 221.333L193.5 222.333H195.75" stroke="#D2B48C"/>
<path d="M50 74H43V72H46.1111V73.1429" stroke="#D2B48C"/>
<path d="M147 60V62.8125M147 62.8125V65M147 62.8125H151V64.6875" stroke="#D2B48C"/>
<path d="M198 302V299.188M198 299.188V297M198 299.188H194V297.312" stroke="#D2B48C"/>
<path d="M201 233V235.812M201 235.812V238M201 235.812H205V237.688" stroke="#D2B48C"/>
<path d="M147 62H143.8H143V65" stroke="#D2B48C"/>
<path d="M198 300H201.2H202V297" stroke="#D2B48C"/>
<path d="M201 236H197.8H197V238" stroke="#D2B48C"/>
<path d="M96.5708 6.88889C103.487 8.03791 118.214 10.8169 117.998 13H101.57L96.5708 12.5926C96.7604 11.5493 93.7215 10.3995 90.8569 9.33333C89.9046 8.51852 88 6.56296 88 5.25926V4.03704V2L90.8569 3.22222C91.5711 4.17284 93.7138 6.23704 96.5708 6.88889Z" fill="#FEF9E1" stroke="#D2B48C"/>
<path d="M106.997 6.7931C111.993 8.19444 122.322 11.5137 121.992 13H118.422L116.994 11.3448L97.7141 6.7931C97.238 6.37931 97 5.13793 97 4.72414V1L99.8563 2.24138C100.808 3.48276 103.569 6.13103 106.997 6.7931Z" fill="#FEF9E1" stroke="#D2B48C"/>
<path d="M238 14C238 13.4304 238.285 12.9504 238.558 12.3981C238.845 11.8166 239.303 11.3124 239.673 10.75C239.914 10.3848 240.205 10.1277 241 10" stroke="#820000" stroke-linecap="square"/>
<path d="M241 12.8437C241.76 12.8437 242.305 12.6122 242.967 12.4755C243.547 12.3557 244.067 12.1865 244.635 12.0621C245.928 11.7785 247.496 12.5315 248 13" stroke="#820000" stroke-linecap="square"/>
<path d="M239 13C239.759 13.283 240.134 13.9863 240.689 14.395C240.991 14.6173 241.111 14.7895 241.528 14.9406C242.101 15.1479 242.671 15.298 243.291 15.424C245.101 15.7915 247.022 15.5976 248.827 15.9212C249.506 16.043 250.316 16.0081 251 15.9212" stroke="#820000" stroke-linecap="square"/>
<path d="M248 17C248.03 17.5212 248.637 17.5553 249.185 17.7142C249.478 17.7992 249.802 17.7691 250.114 17.8271C250.765 17.9483 251.402 17.9888 252.076 17.9888C253.085 17.9888 254.083 18.0749 255 17.7691" stroke="#820000" stroke-linecap="square"/>
<path d="M244.003 10C244.003 9.75683 243.928 9.54036 244.543 9.35C245.029 9.1996 245.756 9.07106 246.506 9.05139C247.027 9.03773 247.532 9.07722 248 9" stroke="#820000" stroke-linecap="square"/>
<path d="M248 13C248.571 13 250.597 13 250.935 13C251.12 13 252.006 13 252.413 13C252.85 13 253.321 13 253.743 13C254.172 13 254.541 13 255 13" stroke="#820000" stroke-linecap="square"/>
<path d="M243.636 16C243.581 16.1312 243.4 16.2075 243.208 16.3256C242.958 16.4797 242.828 16.7188 243.443 16.8346C244.321 16.9997 245.946 17 247 17" stroke="#820000" stroke-linecap="square"/>
<path d="M223 20C223 19.6308 223 17.3846 223 16.3077L226 14" stroke="#6FB272"/>
<path d="M244 17C244.231 17.0278 244.633 17.7559 244.813 17.9431C245.338 18.4896 245.554 19.2616 246.233 19.6644C247.052 20.1503 247.974 19.9655 248.932 19.9655C249.621 19.9655 250.311 19.9655 251 19.9655" stroke="#820000" stroke-linecap="square"/>
<path d="M250.021 17C250.021 16.5249 249.903 16.0305 250.232 15.5972C250.643 15.0551 251.217 14.5813 252.056 14.316C252.571 14.1532 252.94 14 253.548 14C254.385 14 255.178 14.1875 256 14.1875" stroke="#820000" stroke-linecap="square"/>
<path d="M246.402 14C246.353 13.8049 245.937 13.6091 246.008 13.4136C246.037 13.3348 247.269 13.1358 247.452 13.0985C247.908 13.0054 248.444 13.0999 248.901 13.0241C249.194 12.9755 249.678 13.0154 250 13.0154" stroke="#820000" stroke-linecap="square"/>
<path d="M249.224 13C248.646 12.875 248.155 12.6003 247.681 12.382C247.478 12.2886 247.018 12.1694 247.002 12C246.958 11.5304 247.642 11.4035 248.249 11.1598C248.899 10.8984 249.43 10.4753 250.223 10.3265C250.832 10.2123 251.244 10.0654 251.92 10.0313C252.613 9.99656 253.306 10.0001 254 10.0001" stroke="#820000" stroke-linecap="square"/>
<path d="M239.622 12.8898C239.256 12.9126 238.984 13.0733 238.576 12.9599C237.904 12.7731 238.036 12.3954 238.036 12.0602C238.036 11.4149 237.888 10.7019 238.191 10.0739C238.519 9.39322 238.843 8.63017 240.117 8.2921C240.695 8.13872 241.349 8 242 8" stroke="#820000" stroke-linecap="square"/>
<path d="M238.027 14C238.027 14.6325 237.781 15.289 238.778 15.6364C239.237 15.796 239.498 16 240.11 16C241.072 16 242.019 15.8788 243 15.8788" stroke="#820000" stroke-linecap="square"/>
<path d="M238 16C238.406 16.5409 238.543 17.1822 238.985 17.7039C239.669 18.5095 240.453 19.2441 241.684 19.5209C242.955 19.8062 244.313 19.9973 245.631 19.9973C246.146 19.9973 246.584 20.0321 247.051 19.8519C247.368 19.7299 247.617 19.6339 248 19.6339" stroke="#820000" stroke-linecap="square"/>
<path d="M247 18C247.192 18 247.684 18 248 18C248.529 18 249.02 18 249.556 18C250.223 18 250.89 18 251.545 18C251.924 18 252.262 18 252.636 18C253.091 18 253.545 18 254 18" stroke="#820000" stroke-linecap="square"/>
<path d="M241 8C241 8.18611 241.376 8.77778 242.01 8.77778C243.355 8.77778 244.636 9 246 9" stroke="#820000" stroke-linecap="square"/>
<path d="M101.563 13H38V87.5769H140.407V71.5389H204.676V87.5769H262.589V71.5389H318.383V87.5769V109.55H262.589V127.529H194.4L194.4 109.55H127.371V127.529H38V197.445V243.389H115.543V223.413H176V243.389H303.486V223.413H337V266.695H211.486V290H187.171V266.695H38V290" stroke="black"/>
<path d="M102.003 40H89.2738V71.0559H111.196V53.5372H122.511L222.93 53.1391V71.0559H244.852V53.1391H358V71.0559V115.244V145.209H297.656V163.187H172.101V138.55H146.464V163.187H66.9237V197.147V211.13H102.003V192.486H199.052V211.13H279.25V192.486H358V299.692H244.852V321H156.324V292.367H85.987H38" stroke="black"/>
<path d="M101 40H141.5H155V36.25H128.711C125.868 36.25 125.632 32.0833 125.868 30" stroke="black"/>
</svg>
